<svg id="visual" viewBox="0 0 1000 450" width="1000" height="450" xmlns="http://www.w3.org/2000/svg" xmlns:xlink="http://www.w3.org/1999/xlink" version="1.1"><rect x="0" y="0" width="1000" height="450" fill="#EAEDF0"></rect><defs><linearGradient id="grad1_0" x1="55%" y1="0%" x2="100%" y2="100%"><stop offset="5.555555555555554%" stop-color="#eaedf0" stop-opacity="1"></stop><stop offset="94.44444444444446%" stop-color="#eaedf0" stop-opacity="1"></stop></linearGradient></defs><defs><linearGradient id="grad2_0" x1="0%" y1="0%" x2="45%" y2="100%"><stop offset="5.555555555555554%" stop-color="#eaedf0" stop-opacity="1"></stop><stop offset="94.44444444444446%" stop-color="#eaedf0" stop-opacity="1"></stop></linearGradient></defs><g transform="translate(1000, 0)"><path d="M0 450C-20.3 450.3 -40.5 450.5 -56.4 428.3C-72.2 406.1 -83.7 361.4 -84.4 314.9C-85.1 268.3 -75.1 219.9 -96.1 231.9C-117 243.9 -169 316.3 -184.5 319.6C-200 322.8 -179.1 257 -175.9 229.3C-172.8 201.5 -187.5 211.9 -236.2 236.2C-284.8 260.5 -367.4 298.7 -357 273.9C-346.6 249.2 -243.2 161.4 -229.5 132.5C-215.8 103.6 -291.9 133.7 -334.4 138.5C-377 143.4 -386.1 123 -391.2 104.8C-396.3 86.6 -397.4 70.6 -406.5 53.5C-415.6 36.4 -432.8 18.2 -450 0L0 0Z" fill="#B0D1E2"></path></g><g transform="translate(0, 450)"><path d="M0 -450C18.3 -436.6 36.6 -423.3 55 -417.4C73.3 -411.5 91.7 -413.1 111.3 -415.3C130.9 -417.6 151.6 -420.5 172.2 -415.7C192.8 -411 213.4 -398.5 203 -351.6C192.6 -304.7 151.2 -223.3 161.3 -210.2C171.5 -197.2 233.2 -252.5 265.9 -265.9C298.5 -279.2 302.1 -250.6 281.6 -216.1C261.2 -181.6 216.7 -141.1 219.1 -126.5C221.5 -111.9 270.7 -123.2 286.4 -118.6C302.1 -114.1 284.3 -93.8 307.2 -82.3C330.1 -70.8 393.7 -68.1 424.3 -55.9C454.9 -43.6 452.5 -21.8 450 0L0 0Z" fill="#B0D1E2"></path></g></svg>