<svg id="visual" viewBox="0 0 1000 450" width="1000" height="450" xmlns="http://www.w3.org/2000/svg" xmlns:xlink="http://www.w3.org/1999/xlink" version="1.1"><rect x="0" y="0" width="1000" height="450" fill="#EAEDF0"></rect><path d="M0 121L23.8 125.3C47.7 129.7 95.3 138.3 143 147.8C190.7 157.3 238.3 167.7 286 168.5C333.7 169.3 381.3 160.7 428.8 160.7C476.3 160.7 523.7 169.3 571.2 164.7C618.7 160 666.3 142 714 134.5C761.7 127 809.3 130 857 128.5C904.7 127 952.3 121 976.2 118L1000 115L1000 0L976.2 0C952.3 0 904.7 0 857 0C809.3 0 761.7 0 714 0C666.3 0 618.7 0 571.2 0C523.7 0 476.3 0 428.8 0C381.3 0 333.7 0 286 0C238.3 0 190.7 0 143 0C95.3 0 47.7 0 23.8 0L0 0Z" fill="#b0d1e2"></path><path d="M0 112L23.8 114.3C47.7 116.7 95.3 121.3 143 122C190.7 122.7 238.3 119.3 286 115.7C333.7 112 381.3 108 428.8 113.2C476.3 118.3 523.7 132.7 571.2 132.3C618.7 132 666.3 117 714 114.7C761.7 112.3 809.3 122.7 857 129C904.7 135.3 952.3 137.7 976.2 138.8L1000 140L1000 0L976.2 0C952.3 0 904.7 0 857 0C809.3 0 761.7 0 714 0C666.3 0 618.7 0 571.2 0C523.7 0 476.3 0 428.8 0C381.3 0 333.7 0 286 0C238.3 0 190.7 0 143 0C95.3 0 47.7 0 23.8 0L0 0Z" fill="#c0d8e6"></path><path d="M0 95L23.8 96.2C47.7 97.3 95.3 99.7 143 102.3C190.7 105 238.3 108 286 109.2C333.7 110.3 381.3 109.7 428.8 106.3C476.3 103 523.7 97 571.2 94.5C618.7 92 666.3 93 714 97C761.7 101 809.3 108 857 107.3C904.7 106.7 952.3 98.3 976.2 94.2L1000 90L1000 0L976.2 0C952.3 0 904.7 0 857 0C809.3 0 761.7 0 714 0C666.3 0 618.7 0 571.2 0C523.7 0 476.3 0 428.8 0C381.3 0 333.7 0 286 0C238.3 0 190.7 0 143 0C95.3 0 47.7 0 23.8 0L0 0Z" fill="#cfdfea"></path><path d="M0 74L23.8 75C47.7 76 95.3 78 143 78.5C190.7 79 238.3 78 286 76.7C333.7 75.3 381.3 73.7 428.8 69.5C476.3 65.3 523.7 58.7 571.2 56.5C618.7 54.3 666.3 56.7 714 57.8C761.7 59 809.3 59 857 62.3C904.7 65.7 952.3 72.3 976.2 75.7L1000 79L1000 0L976.2 0C952.3 0 904.7 0 857 0C809.3 0 761.7 0 714 0C666.3 0 618.7 0 571.2 0C523.7 0 476.3 0 428.8 0C381.3 0 333.7 0 286 0C238.3 0 190.7 0 143 0C95.3 0 47.7 0 23.8 0L0 0Z" fill="#dde6ed"></path><path d="M0 48L23.8 44.5C47.7 41 95.3 34 143 29.8C190.7 25.7 238.3 24.3 286 23.8C333.7 23.3 381.3 23.7 428.8 23.2C476.3 22.7 523.7 21.3 571.2 20.7C618.7 20 666.3 20 714 25C761.7 30 809.3 40 857 44.7C904.7 49.3 952.3 48.7 976.2 48.3L1000 48L1000 0L976.2 0C952.3 0 904.7 0 857 0C809.3 0 761.7 0 714 0C666.3 0 618.7 0 571.2 0C523.7 0 476.3 0 428.8 0C381.3 0 333.7 0 286 0C238.3 0 190.7 0 143 0C95.3 0 47.7 0 23.8 0L0 0Z" fill="#eaedf0"></path></svg>